<mxfile host="Electron" modified="2023-04-27T08:53:00.460Z" agent="Mozilla/5.0 (Macintosh; Intel Mac OS X 10_15_7) AppleWebKit/537.36 (KHTML, like Gecko) draw.io/21.2.1 Chrome/112.0.5615.87 Electron/24.1.2 Safari/537.36" etag="iDbVh0EI_-PzeNNMcgou" version="21.2.1" type="device">
  <diagram id="C5RBs43oDa-KdzZeNtuy" name="Page-1">
    <mxGraphModel dx="1656" dy="1209" grid="1" gridSize="10" guides="1" tooltips="1" connect="1" arrows="1" fold="1" page="1" pageScale="1" pageWidth="827" pageHeight="1169" math="0" shadow="0">
      <root>
        <mxCell id="WIyWlLk6GJQsqaUBKTNV-0" />
        <mxCell id="WIyWlLk6GJQsqaUBKTNV-1" parent="WIyWlLk6GJQsqaUBKTNV-0" />
        <mxCell id="L3-2UbcGx-O6y74rbX5_-43" style="edgeStyle=orthogonalEdgeStyle;rounded=0;orthogonalLoop=1;jettySize=auto;html=1;entryX=0.5;entryY=0;entryDx=0;entryDy=0;" edge="1" parent="WIyWlLk6GJQsqaUBKTNV-1" source="L3-2UbcGx-O6y74rbX5_-0" target="L3-2UbcGx-O6y74rbX5_-3">
          <mxGeometry relative="1" as="geometry" />
        </mxCell>
        <mxCell id="L3-2UbcGx-O6y74rbX5_-0" value="Input:&amp;nbsp;ArrayList of MyClass objects (representing classes of items)" style="rounded=1;whiteSpace=wrap;html=1;fontSize=12;glass=0;strokeWidth=1;shadow=0;" vertex="1" parent="WIyWlLk6GJQsqaUBKTNV-1">
          <mxGeometry x="339" y="90" width="150" height="70" as="geometry" />
        </mxCell>
        <mxCell id="L3-2UbcGx-O6y74rbX5_-44" style="edgeStyle=orthogonalEdgeStyle;rounded=0;orthogonalLoop=1;jettySize=auto;html=1;entryX=0.46;entryY=-0.003;entryDx=0;entryDy=0;entryPerimeter=0;" edge="1" parent="WIyWlLk6GJQsqaUBKTNV-1" source="L3-2UbcGx-O6y74rbX5_-3" target="L3-2UbcGx-O6y74rbX5_-6">
          <mxGeometry relative="1" as="geometry" />
        </mxCell>
        <mxCell id="L3-2UbcGx-O6y74rbX5_-3" value="Data preparation:&amp;nbsp;&lt;br&gt;- Initialize classes, classesSize, chosenItem, previousChosenItem, usedWeights.&lt;br&gt;- Copy originalClasses into classes." style="rounded=1;whiteSpace=wrap;html=1;fontSize=12;glass=0;strokeWidth=1;shadow=0;" vertex="1" parent="WIyWlLk6GJQsqaUBKTNV-1">
          <mxGeometry x="284" y="190" width="260" height="80" as="geometry" />
        </mxCell>
        <mxCell id="L3-2UbcGx-O6y74rbX5_-45" style="edgeStyle=orthogonalEdgeStyle;rounded=0;orthogonalLoop=1;jettySize=auto;html=1;" edge="1" parent="WIyWlLk6GJQsqaUBKTNV-1" source="L3-2UbcGx-O6y74rbX5_-6" target="L3-2UbcGx-O6y74rbX5_-7">
          <mxGeometry relative="1" as="geometry">
            <Array as="points">
              <mxPoint x="420" y="410" />
              <mxPoint x="420" y="410" />
            </Array>
          </mxGeometry>
        </mxCell>
        <mxCell id="L3-2UbcGx-O6y74rbX5_-6" value="Pre-algorithm Sorting: &lt;br&gt;Sorts items in each class by weight sums (descending order)." style="rounded=1;whiteSpace=wrap;html=1;fontSize=12;glass=0;strokeWidth=1;shadow=0;" vertex="1" parent="WIyWlLk6GJQsqaUBKTNV-1">
          <mxGeometry x="325" y="310" width="195" height="90" as="geometry" />
        </mxCell>
        <mxCell id="L3-2UbcGx-O6y74rbX5_-34" style="edgeStyle=orthogonalEdgeStyle;rounded=0;orthogonalLoop=1;jettySize=auto;html=1;entryX=0.5;entryY=0;entryDx=0;entryDy=0;" edge="1" parent="WIyWlLk6GJQsqaUBKTNV-1" source="L3-2UbcGx-O6y74rbX5_-7" target="L3-2UbcGx-O6y74rbX5_-10">
          <mxGeometry relative="1" as="geometry" />
        </mxCell>
        <mxCell id="L3-2UbcGx-O6y74rbX5_-7" value="Initialize binary mask:&lt;br&gt;Create itemMask (boolean array) and set all elements to false." style="rounded=1;whiteSpace=wrap;html=1;fontSize=12;glass=0;strokeWidth=1;shadow=0;" vertex="1" parent="WIyWlLk6GJQsqaUBKTNV-1">
          <mxGeometry x="325" y="440" width="190" height="80" as="geometry" />
        </mxCell>
        <mxCell id="L3-2UbcGx-O6y74rbX5_-28" style="edgeStyle=orthogonalEdgeStyle;rounded=0;orthogonalLoop=1;jettySize=auto;html=1;entryX=1.011;entryY=0.417;entryDx=0;entryDy=0;entryPerimeter=0;" edge="1" parent="WIyWlLk6GJQsqaUBKTNV-1" source="L3-2UbcGx-O6y74rbX5_-10" target="L3-2UbcGx-O6y74rbX5_-46">
          <mxGeometry relative="1" as="geometry">
            <mxPoint x="107" y="695" as="targetPoint" />
          </mxGeometry>
        </mxCell>
        <mxCell id="L3-2UbcGx-O6y74rbX5_-29" value="SI" style="edgeLabel;html=1;align=center;verticalAlign=middle;resizable=0;points=[];" vertex="1" connectable="0" parent="L3-2UbcGx-O6y74rbX5_-28">
          <mxGeometry x="-0.0779" y="1" relative="1" as="geometry">
            <mxPoint as="offset" />
          </mxGeometry>
        </mxCell>
        <mxCell id="L3-2UbcGx-O6y74rbX5_-53" style="edgeStyle=orthogonalEdgeStyle;rounded=0;orthogonalLoop=1;jettySize=auto;html=1;entryX=0.5;entryY=0;entryDx=0;entryDy=0;" edge="1" parent="WIyWlLk6GJQsqaUBKTNV-1" source="L3-2UbcGx-O6y74rbX5_-10" target="L3-2UbcGx-O6y74rbX5_-52">
          <mxGeometry relative="1" as="geometry" />
        </mxCell>
        <mxCell id="L3-2UbcGx-O6y74rbX5_-55" value="NO" style="edgeLabel;html=1;align=center;verticalAlign=middle;resizable=0;points=[];" vertex="1" connectable="0" parent="L3-2UbcGx-O6y74rbX5_-53">
          <mxGeometry x="-0.3429" y="2" relative="1" as="geometry">
            <mxPoint as="offset" />
          </mxGeometry>
        </mxCell>
        <mxCell id="L3-2UbcGx-O6y74rbX5_-10" value="Greedy iteration: &lt;br&gt;is feasible" style="rhombus;whiteSpace=wrap;html=1;shadow=0;fontFamily=Helvetica;fontSize=12;align=center;strokeWidth=1;spacing=6;spacingTop=-4;" vertex="1" parent="WIyWlLk6GJQsqaUBKTNV-1">
          <mxGeometry x="339" y="700" width="166" height="170" as="geometry" />
        </mxCell>
        <mxCell id="L3-2UbcGx-O6y74rbX5_-14" value="Iterative greedy process:&lt;br&gt;- Loop through compinations of items" style="rounded=1;whiteSpace=wrap;html=1;fontSize=12;glass=0;strokeWidth=1;shadow=0;" vertex="1" parent="WIyWlLk6GJQsqaUBKTNV-1">
          <mxGeometry x="330" y="570" width="170" height="70" as="geometry" />
        </mxCell>
        <mxCell id="L3-2UbcGx-O6y74rbX5_-42" style="edgeStyle=orthogonalEdgeStyle;rounded=0;orthogonalLoop=1;jettySize=auto;html=1;entryX=0.5;entryY=0;entryDx=0;entryDy=0;" edge="1" parent="WIyWlLk6GJQsqaUBKTNV-1" source="L3-2UbcGx-O6y74rbX5_-41" target="L3-2UbcGx-O6y74rbX5_-0">
          <mxGeometry relative="1" as="geometry" />
        </mxCell>
        <mxCell id="L3-2UbcGx-O6y74rbX5_-41" value="START" style="ellipse;whiteSpace=wrap;html=1;" vertex="1" parent="WIyWlLk6GJQsqaUBKTNV-1">
          <mxGeometry x="359" y="10" width="110" height="60" as="geometry" />
        </mxCell>
        <mxCell id="L3-2UbcGx-O6y74rbX5_-46" value="END" style="ellipse;whiteSpace=wrap;html=1;" vertex="1" parent="WIyWlLk6GJQsqaUBKTNV-1">
          <mxGeometry x="160" y="760" width="90" height="60" as="geometry" />
        </mxCell>
        <mxCell id="L3-2UbcGx-O6y74rbX5_-56" style="edgeStyle=orthogonalEdgeStyle;rounded=0;orthogonalLoop=1;jettySize=auto;html=1;entryX=1;entryY=0.5;entryDx=0;entryDy=0;" edge="1" parent="WIyWlLk6GJQsqaUBKTNV-1" source="L3-2UbcGx-O6y74rbX5_-52" target="L3-2UbcGx-O6y74rbX5_-14">
          <mxGeometry relative="1" as="geometry">
            <Array as="points">
              <mxPoint x="580" y="930" />
              <mxPoint x="580" y="605" />
            </Array>
          </mxGeometry>
        </mxCell>
        <mxCell id="L3-2UbcGx-O6y74rbX5_-52" value="Generate new mask" style="rounded=1;whiteSpace=wrap;html=1;fontSize=12;glass=0;strokeWidth=1;shadow=0;" vertex="1" parent="WIyWlLk6GJQsqaUBKTNV-1">
          <mxGeometry x="343.5" y="910" width="157" height="40" as="geometry" />
        </mxCell>
      </root>
    </mxGraphModel>
  </diagram>
</mxfile>
